<?xml version="1.0" encoding="UTF-8"?><svg xmlns="http://www.w3.org/2000/svg" xmlns:xlink="http://www.w3.org/1999/xlink" fill-opacity="1" color-rendering="auto" color-interpolation="auto" stroke="black" text-rendering="auto" stroke-linecap="square" width="847" stroke-miterlimit="10" stroke-opacity="1" shape-rendering="auto" fill="black" stroke-dasharray="none" font-weight="normal" stroke-width="1" height="710" font-family="'Dialog'" font-style="normal" stroke-linejoin="miter" font-size="12" stroke-dashoffset="0" image-rendering="auto">
  <!--Generated by ySVG 2.5-->
  <defs id="genericDefs"/>
  <g>
    <defs id="defs1">
      <linearGradient x1="893.72" gradientUnits="userSpaceOnUse" x2="933.72" y1="40.5" y2="624" id="linearGradient1" spreadMethod="reflect">
        <stop stop-opacity="1" stop-color="rgb(175,215,255)" offset="0%"/>
        <stop stop-opacity="1" stop-color="rgb(92,174,255)" offset="100%"/>
      </linearGradient>
      <clipPath clipPathUnits="userSpaceOnUse" id="clipPath1">
        <path d="M0 0 L847 0 L847 710 L0 710 L0 0 Z"/>
      </clipPath>
      <clipPath clipPathUnits="userSpaceOnUse" id="clipPath2">
        <path d="M102 25 L949 25 L949 735 L102 735 L102 25 Z"/>
      </clipPath>
      <clipPath clipPathUnits="userSpaceOnUse" id="clipPath3">
        <path d="M-253.2627 821.8684 L-253.2627 -25.1316 L456.7373 -25.1316 L456.7373 821.8684 L-253.2627 821.8684 Z"/>
      </clipPath>
    </defs>
    <g fill="white" text-rendering="geometricPrecision" shape-rendering="geometricPrecision" transform="translate(-102,-25)" stroke="white">
      <rect x="102" width="847" height="710" y="25" clip-path="url(#clipPath2)" stroke="none"/>
    </g>
    <g fill="rgb(113,184,255)" text-rendering="geometricPrecision" shape-rendering="geometricPrecision" transform="matrix(1,0,0,1,-102,-25)" stroke="rgb(113,184,255)">
      <path d="M449.375 529.5 L449.375 559.5 L863.72 559.5 L863.72 529.5 Z" clip-path="url(#clipPath2)" stroke="none"/>
      <rect x="449.375" width="414.345" height="160.5" y="559.5" clip-path="url(#clipPath2)" stroke="none"/>
      <rect x="449.375" y="559.5" clip-path="url(#clipPath2)" fill="rgb(175,215,255)" width="120" height="24" stroke="none"/>
      <rect x="449.375" y="583.5" clip-path="url(#clipPath2)" fill="rgb(175,215,255)" width="120" height="136.5" stroke="none"/>
      <rect x="569.375" y="559.5" clip-path="url(#clipPath2)" fill="rgb(92,174,255)" width="120" height="24" stroke="none"/>
      <rect x="569.375" y="583.5" clip-path="url(#clipPath2)" fill="rgb(92,174,255)" width="120" height="136.5" stroke="none"/>
      <rect x="689.375" y="559.5" clip-path="url(#clipPath2)" fill="rgb(175,215,255)" width="174.345" height="24" stroke="none"/>
      <rect x="689.375" y="583.5" clip-path="url(#clipPath2)" fill="rgb(175,215,255)" width="174.345" height="136.5" stroke="none"/>
      <line clip-path="url(#clipPath2)" fill="rgb(51,153,255)" x1="449.375" x2="449.375" y1="583.5" y2="720" stroke="none"/>
    </g>
    <g text-rendering="geometricPrecision" font-size="15" stroke-miterlimit="1.45" shape-rendering="geometricPrecision" transform="matrix(1,0,0,1,-102,-25)" stroke-linecap="butt">
      <text x="611.4047" xml:space="preserve" y="549.4233" clip-path="url(#clipPath2)" stroke="none">Leaf Node 3</text>
      <text x="465.043" font-size="12" y="575.6387" clip-path="url(#clipPath2)" font-family="sans-serif" stroke="none" xml:space="preserve">TEMPERATURE</text>
      <text x="599.999" font-size="12" y="575.6387" clip-path="url(#clipPath2)" font-family="sans-serif" stroke="none" xml:space="preserve">PRODUCT</text>
      <text x="755.3336" font-size="12" y="575.6387" clip-path="url(#clipPath2)" font-family="sans-serif" stroke="none" xml:space="preserve">ROWID</text>
    </g>
    <g text-rendering="geometricPrecision" stroke-miterlimit="1.45" shape-rendering="geometricPrecision" transform="matrix(1,0,0,1,-102,-25)" stroke-linecap="butt">
      <text x="505.5576" xml:space="preserve" y="613.1543" clip-path="url(#clipPath2)" stroke="none">4</text>
    </g>
    <g text-rendering="geometricPrecision" stroke-miterlimit="1.45" shape-rendering="geometricPrecision" transform="matrix(1,0,0,1,-102,-25)" stroke-linecap="butt">
      <text x="505.5576" xml:space="preserve" y="643.1543" clip-path="url(#clipPath2)" stroke="none">5</text>
    </g>
    <g text-rendering="geometricPrecision" stroke-miterlimit="1.45" shape-rendering="geometricPrecision" transform="matrix(1,0,0,1,-102,-25)" stroke-linecap="butt">
      <text x="505.5576" xml:space="preserve" y="673.1543" clip-path="url(#clipPath2)" stroke="none">6</text>
    </g>
    <g text-rendering="geometricPrecision" stroke-miterlimit="1.45" shape-rendering="geometricPrecision" transform="matrix(1,0,0,1,-102,-25)" stroke-linecap="butt">
      <text x="608.0732" xml:space="preserve" y="613.1543" clip-path="url(#clipPath2)" stroke="none">cheese</text>
    </g>
    <g text-rendering="geometricPrecision" stroke-miterlimit="1.45" shape-rendering="geometricPrecision" transform="matrix(1,0,0,1,-102,-25)" stroke-linecap="butt">
      <text x="616.7217" xml:space="preserve" y="643.1543" clip-path="url(#clipPath2)" stroke="none">milk</text>
    </g>
    <g text-rendering="geometricPrecision" stroke-miterlimit="1.45" shape-rendering="geometricPrecision" transform="matrix(1,0,0,1,-102,-25)" stroke-linecap="butt">
      <text x="615.7168" xml:space="preserve" y="673.1543" clip-path="url(#clipPath2)" stroke="none">beer</text>
    </g>
    <g text-rendering="geometricPrecision" stroke-miterlimit="1.45" shape-rendering="geometricPrecision" transform="matrix(1,0,0,1,-102,-25)" stroke-linecap="butt">
      <text x="505.5576" xml:space="preserve" y="703.1543" clip-path="url(#clipPath2)" stroke="none">6</text>
    </g>
    <g text-rendering="geometricPrecision" stroke-miterlimit="1.45" shape-rendering="geometricPrecision" transform="matrix(1,0,0,1,-102,-25)" stroke-linecap="butt">
      <text x="610.3965" xml:space="preserve" y="703.1543" clip-path="url(#clipPath2)" stroke="none">cream</text>
    </g>
    <g text-rendering="geometricPrecision" stroke-miterlimit="1.45" shape-rendering="geometricPrecision" transform="matrix(1,0,0,1,-102,-25)" stroke-linecap="butt">
      <text x="703.9355" xml:space="preserve" y="613.1543" clip-path="url(#clipPath2)" stroke="none">AAAAAqACEAAAAEPAfA</text>
    </g>
    <g text-rendering="geometricPrecision" stroke-miterlimit="1.45" shape-rendering="geometricPrecision" transform="matrix(1,0,0,1,-102,-25)" stroke-linecap="butt">
      <text x="703.6016" xml:space="preserve" y="643.1543" clip-path="url(#clipPath2)" stroke="none">AAAAAqACEAAAAbzCcP</text>
    </g>
    <g text-rendering="geometricPrecision" stroke-miterlimit="1.45" shape-rendering="geometricPrecision" transform="matrix(1,0,0,1,-102,-25)" stroke-linecap="butt">
      <text x="705.3213" xml:space="preserve" y="673.1543" clip-path="url(#clipPath2)" stroke="none">AAAAAqACEAAAAbzIqS</text>
    </g>
    <g text-rendering="geometricPrecision" stroke-miterlimit="1.45" shape-rendering="geometricPrecision" transform="matrix(1,0,0,1,-102,-25)" stroke-linecap="butt">
      <text x="701.3369" xml:space="preserve" y="703.1543" clip-path="url(#clipPath2)" stroke="none">AAAAAqACEABy1H4AAD</text>
    </g>
    <g fill="rgb(113,184,255)" text-rendering="geometricPrecision" shape-rendering="geometricPrecision" transform="matrix(1,0,0,1,-102,-25)" stroke="rgb(113,184,255)">
      <path d="M450 285 L450 315 L863.72 315 L863.72 285 Z" clip-path="url(#clipPath2)" stroke="none"/>
      <rect x="450" width="413.72" height="160.5" y="315" clip-path="url(#clipPath2)" stroke="none"/>
      <rect x="450" y="315" clip-path="url(#clipPath2)" fill="rgb(175,215,255)" width="120" height="24" stroke="none"/>
      <rect x="450" y="339" clip-path="url(#clipPath2)" fill="rgb(175,215,255)" width="120" height="136.5" stroke="none"/>
      <rect x="570" y="315" clip-path="url(#clipPath2)" fill="rgb(92,174,255)" width="120" height="24" stroke="none"/>
      <rect x="570" y="339" clip-path="url(#clipPath2)" fill="rgb(92,174,255)" width="120" height="136.5" stroke="none"/>
      <rect x="690" y="315" clip-path="url(#clipPath2)" fill="rgb(175,215,255)" width="173.72" height="24" stroke="none"/>
      <rect x="690" y="339" clip-path="url(#clipPath2)" fill="rgb(175,215,255)" width="173.72" height="136.5" stroke="none"/>
      <line clip-path="url(#clipPath2)" fill="rgb(51,153,255)" x1="450" x2="450" y1="339" y2="475.5" stroke="none"/>
    </g>
    <g text-rendering="geometricPrecision" font-size="15" stroke-miterlimit="1.45" shape-rendering="geometricPrecision" transform="matrix(1,0,0,1,-102,-25)" stroke-linecap="butt">
      <text x="611.7172" xml:space="preserve" y="304.9233" clip-path="url(#clipPath2)" stroke="none">Leaf Node 2</text>
      <text x="465.668" font-size="12" y="331.1387" clip-path="url(#clipPath2)" font-family="sans-serif" stroke="none" xml:space="preserve">TEMPERATURE</text>
      <text x="600.624" font-size="12" y="331.1387" clip-path="url(#clipPath2)" font-family="sans-serif" stroke="none" xml:space="preserve">PRODUCT</text>
      <text x="755.6461" font-size="12" y="331.1387" clip-path="url(#clipPath2)" font-family="sans-serif" stroke="none" xml:space="preserve">ROWID</text>
    </g>
    <g text-rendering="geometricPrecision" stroke-miterlimit="1.45" shape-rendering="geometricPrecision" transform="matrix(1,0,0,1,-102,-25)" stroke-linecap="butt">
      <text x="506.1826" xml:space="preserve" y="368.6543" clip-path="url(#clipPath2)" stroke="none">2</text>
    </g>
    <g text-rendering="geometricPrecision" stroke-miterlimit="1.45" shape-rendering="geometricPrecision" transform="matrix(1,0,0,1,-102,-25)" stroke-linecap="butt">
      <text x="506.1826" xml:space="preserve" y="398.6543" clip-path="url(#clipPath2)" stroke="none">3</text>
    </g>
    <g text-rendering="geometricPrecision" stroke-miterlimit="1.45" shape-rendering="geometricPrecision" transform="matrix(1,0,0,1,-102,-25)" stroke-linecap="butt">
      <text x="506.1826" xml:space="preserve" y="428.6543" clip-path="url(#clipPath2)" stroke="none">4</text>
    </g>
    <g text-rendering="geometricPrecision" stroke-miterlimit="1.45" shape-rendering="geometricPrecision" transform="matrix(1,0,0,1,-102,-25)" stroke-linecap="butt">
      <text x="610.1279" xml:space="preserve" y="368.6543" clip-path="url(#clipPath2)" stroke="none">unions</text>
    </g>
    <g text-rendering="geometricPrecision" stroke-miterlimit="1.45" shape-rendering="geometricPrecision" transform="matrix(1,0,0,1,-102,-25)" stroke-linecap="butt">
      <text x="613.3477" xml:space="preserve" y="398.6543" clip-path="url(#clipPath2)" stroke="none">apple</text>
    </g>
    <g text-rendering="geometricPrecision" stroke-miterlimit="1.45" shape-rendering="geometricPrecision" transform="matrix(1,0,0,1,-102,-25)" stroke-linecap="butt">
      <text x="616.3418" xml:space="preserve" y="428.6543" clip-path="url(#clipPath2)" stroke="none">beer</text>
    </g>
    <g text-rendering="geometricPrecision" stroke-miterlimit="1.45" shape-rendering="geometricPrecision" transform="matrix(1,0,0,1,-102,-25)" stroke-linecap="butt">
      <text x="506.1826" xml:space="preserve" y="458.6543" clip-path="url(#clipPath2)" stroke="none">4</text>
    </g>
    <g text-rendering="geometricPrecision" stroke-miterlimit="1.45" shape-rendering="geometricPrecision" transform="matrix(1,0,0,1,-102,-25)" stroke-linecap="butt">
      <text x="616.3418" xml:space="preserve" y="458.6543" clip-path="url(#clipPath2)" stroke="none">beer</text>
    </g>
    <g text-rendering="geometricPrecision" stroke-miterlimit="1.45" shape-rendering="geometricPrecision" transform="matrix(1,0,0,1,-102,-25)" stroke-linecap="butt">
      <text x="701.7061" xml:space="preserve" y="368.6543" clip-path="url(#clipPath2)" stroke="none">AAAAAqACEAAAAEPHKA</text>
    </g>
    <g text-rendering="geometricPrecision" stroke-miterlimit="1.45" shape-rendering="geometricPrecision" transform="matrix(1,0,0,1,-102,-25)" stroke-linecap="butt">
      <text x="702.0195" xml:space="preserve" y="398.6543" clip-path="url(#clipPath2)" stroke="none">AAAAAqACEAAAAE6AB7</text>
    </g>
    <g text-rendering="geometricPrecision" stroke-miterlimit="1.45" shape-rendering="geometricPrecision" transform="matrix(1,0,0,1,-102,-25)" stroke-linecap="butt">
      <text x="703.5898" xml:space="preserve" y="428.6543" clip-path="url(#clipPath2)" stroke="none">AAAAAqACEAAAAE6Pyc</text>
    </g>
    <g text-rendering="geometricPrecision" stroke-miterlimit="1.45" shape-rendering="geometricPrecision" transform="matrix(1,0,0,1,-102,-25)" stroke-linecap="butt">
      <text x="700.8154" xml:space="preserve" y="458.6543" clip-path="url(#clipPath2)" stroke="none">AAAAAqACEAAAAE6NVG</text>
    </g>
    <g fill="rgb(113,184,255)" text-rendering="geometricPrecision" shape-rendering="geometricPrecision" transform="matrix(1,0,0,1,-102,-25)" stroke="rgb(113,184,255)">
      <path d="M450 40.5 L450 70.5 L863.72 70.5 L863.72 40.5 Z" clip-path="url(#clipPath2)" stroke="none"/>
      <rect x="450" width="413.72" height="160.5" y="70.5" clip-path="url(#clipPath2)" stroke="none"/>
      <rect x="450" y="70.5" clip-path="url(#clipPath2)" fill="rgb(175,215,255)" width="120" height="24" stroke="none"/>
      <rect x="450" y="94.5" clip-path="url(#clipPath2)" fill="rgb(175,215,255)" width="120" height="136.5" stroke="none"/>
      <rect x="570" y="70.5" clip-path="url(#clipPath2)" fill="rgb(92,174,255)" width="120" height="24" stroke="none"/>
      <rect x="570" y="94.5" clip-path="url(#clipPath2)" fill="rgb(92,174,255)" width="120" height="136.5" stroke="none"/>
      <rect x="690" y="70.5" clip-path="url(#clipPath2)" fill="rgb(175,215,255)" width="173.72" height="24" stroke="none"/>
      <rect x="690" y="94.5" clip-path="url(#clipPath2)" fill="rgb(175,215,255)" width="173.72" height="136.5" stroke="none"/>
      <line clip-path="url(#clipPath2)" fill="rgb(51,153,255)" x1="450" x2="450" y1="94.5" y2="231" stroke="none"/>
    </g>
    <g text-rendering="geometricPrecision" font-size="15" stroke-miterlimit="1.45" shape-rendering="geometricPrecision" transform="matrix(1,0,0,1,-102,-25)" stroke-linecap="butt">
      <text x="611.7172" xml:space="preserve" y="60.4233" clip-path="url(#clipPath2)" stroke="none">Leaf Node 1</text>
      <text x="465.668" font-size="12" y="86.6387" clip-path="url(#clipPath2)" font-family="sans-serif" stroke="none" xml:space="preserve">TEMPERATURE</text>
      <text x="600.624" font-size="12" y="86.6387" clip-path="url(#clipPath2)" font-family="sans-serif" stroke="none" xml:space="preserve">PRODUCT</text>
      <text x="755.6461" font-size="12" y="86.6387" clip-path="url(#clipPath2)" font-family="sans-serif" stroke="none" xml:space="preserve">ROWID</text>
    </g>
    <g text-rendering="geometricPrecision" stroke-miterlimit="1.45" shape-rendering="geometricPrecision" transform="matrix(1,0,0,1,-102,-25)" stroke-linecap="butt">
      <text x="506.1826" xml:space="preserve" y="124.1543" clip-path="url(#clipPath2)" stroke="none">1</text>
    </g>
    <g text-rendering="geometricPrecision" stroke-miterlimit="1.45" shape-rendering="geometricPrecision" transform="matrix(1,0,0,1,-102,-25)" stroke-linecap="butt">
      <text x="506.1826" xml:space="preserve" y="154.1543" clip-path="url(#clipPath2)" stroke="none">2</text>
    </g>
    <g text-rendering="geometricPrecision" stroke-miterlimit="1.45" shape-rendering="geometricPrecision" transform="matrix(1,0,0,1,-102,-25)" stroke-linecap="butt">
      <text x="506.1826" xml:space="preserve" y="184.1543" clip-path="url(#clipPath2)" stroke="none">2</text>
    </g>
    <g text-rendering="geometricPrecision" stroke-miterlimit="1.45" shape-rendering="geometricPrecision" transform="matrix(1,0,0,1,-102,-25)" stroke-linecap="butt">
      <text x="612.9053" xml:space="preserve" y="124.1543" clip-path="url(#clipPath2)" stroke="none">water</text>
    </g>
    <g text-rendering="geometricPrecision" stroke-miterlimit="1.45" shape-rendering="geometricPrecision" transform="matrix(1,0,0,1,-102,-25)" stroke-linecap="butt">
      <text x="616.3418" xml:space="preserve" y="154.1543" clip-path="url(#clipPath2)" stroke="none">beer</text>
    </g>
    <g text-rendering="geometricPrecision" stroke-miterlimit="1.45" shape-rendering="geometricPrecision" transform="matrix(1,0,0,1,-102,-25)" stroke-linecap="butt">
      <text x="615.8643" xml:space="preserve" y="184.1543" clip-path="url(#clipPath2)" stroke="none">coke</text>
    </g>
    <g text-rendering="geometricPrecision" stroke-miterlimit="1.45" shape-rendering="geometricPrecision" transform="matrix(1,0,0,1,-102,-25)" stroke-linecap="butt">
      <text x="506.1826" xml:space="preserve" y="214.1543" clip-path="url(#clipPath2)" stroke="none">2</text>
    </g>
    <g text-rendering="geometricPrecision" stroke-miterlimit="1.45" shape-rendering="geometricPrecision" transform="matrix(1,0,0,1,-102,-25)" stroke-linecap="butt">
      <text x="612.9053" xml:space="preserve" y="214.1543" clip-path="url(#clipPath2)" stroke="none">water</text>
    </g>
    <g text-rendering="geometricPrecision" stroke-miterlimit="1.45" shape-rendering="geometricPrecision" transform="matrix(1,0,0,1,-102,-25)" stroke-linecap="butt">
      <text x="698.6943" xml:space="preserve" y="124.1543" clip-path="url(#clipPath2)" stroke="none">AAAAAqACEAAAAGtAWW</text>
    </g>
    <g text-rendering="geometricPrecision" stroke-miterlimit="1.45" shape-rendering="geometricPrecision" transform="matrix(1,0,0,1,-102,-25)" stroke-linecap="butt">
      <text x="701.6592" xml:space="preserve" y="154.1543" clip-path="url(#clipPath2)" stroke="none">AAAAAqACEAAAAE6AAC</text>
    </g>
    <g text-rendering="geometricPrecision" stroke-miterlimit="1.45" shape-rendering="geometricPrecision" transform="matrix(1,0,0,1,-102,-25)" stroke-linecap="butt">
      <text x="702.0312" xml:space="preserve" y="184.1543" clip-path="url(#clipPath2)" stroke="none">AAAAAqACEAAAAE6AA0</text>
    </g>
    <g text-rendering="geometricPrecision" stroke-miterlimit="1.45" shape-rendering="geometricPrecision" transform="matrix(1,0,0,1,-102,-25)" stroke-linecap="butt">
      <text x="702.9482" xml:space="preserve" y="214.1543" clip-path="url(#clipPath2)" stroke="none">AAAAAqACEAAAAGtAKa</text>
    </g>
    <g fill="rgb(113,184,255)" text-rendering="geometricPrecision" shape-rendering="geometricPrecision" transform="matrix(1,0,0,1,-102,-25)" stroke="rgb(113,184,255)">
      <path d="M117.25 302.5 L117.25 332.5 L360.5522 332.5 L360.5522 302.5 Z" clip-path="url(#clipPath2)" stroke="none"/>
      <rect x="117.25" width="243.3022" height="129" y="332.5" clip-path="url(#clipPath2)" stroke="none"/>
      <rect x="117.25" y="332.5" clip-path="url(#clipPath2)" fill="rgb(175,215,255)" width="120" height="24" stroke="none"/>
      <rect x="117.25" y="356.5" clip-path="url(#clipPath2)" fill="rgb(175,215,255)" width="120" height="105" stroke="none"/>
      <rect x="237.25" y="332.5" clip-path="url(#clipPath2)" fill="rgb(51,153,255)" width="123.3022" height="24" stroke="none"/>
      <rect x="237.25" y="356.5" clip-path="url(#clipPath2)" fill="rgb(51,153,255)" width="123.3022" height="105" stroke="none"/>
      <line clip-path="url(#clipPath2)" fill="rgb(113,146,178)" x1="117.25" x2="117.25" y1="356.5" y2="461.5" stroke="none"/>
    </g>
    <g text-rendering="geometricPrecision" font-size="15" stroke-miterlimit="1.45" shape-rendering="geometricPrecision" transform="matrix(1,0,0,1,-102,-25)" stroke-linecap="butt">
      <text x="190.488" xml:space="preserve" y="322.4233" clip-path="url(#clipPath2)" stroke="none">Branch Node</text>
      <text x="132.918" font-size="12" y="348.6387" clip-path="url(#clipPath2)" font-family="sans-serif" stroke="none" xml:space="preserve">TEMPERATURE</text>
      <text x="269.5251" font-size="12" y="348.6387" clip-path="url(#clipPath2)" font-family="sans-serif" stroke="none" xml:space="preserve">PRODUCT</text>
    </g>
    <g text-rendering="geometricPrecision" stroke-miterlimit="1.45" shape-rendering="geometricPrecision" transform="matrix(1,0,0,1,-102,-25)" stroke-linecap="butt">
      <text x="173.4326" xml:space="preserve" y="413.6543" clip-path="url(#clipPath2)" stroke="none">4</text>
    </g>
    <g text-rendering="geometricPrecision" stroke-miterlimit="1.45" shape-rendering="geometricPrecision" transform="matrix(1,0,0,1,-102,-25)" stroke-linecap="butt">
      <text x="173.4326" xml:space="preserve" y="443.6543" clip-path="url(#clipPath2)" stroke="none">6</text>
    </g>
    <g text-rendering="geometricPrecision" stroke-miterlimit="1.45" shape-rendering="geometricPrecision" transform="matrix(1,0,0,1,-102,-25)" stroke-linecap="butt">
      <text x="280.1553" xml:space="preserve" y="383.6543" clip-path="url(#clipPath2)" stroke="none">water</text>
    </g>
    <g text-rendering="geometricPrecision" stroke-miterlimit="1.45" shape-rendering="geometricPrecision" transform="matrix(1,0,0,1,-102,-25)" stroke-linecap="butt">
      <text x="283.5918" xml:space="preserve" y="413.6543" clip-path="url(#clipPath2)" stroke="none">beer</text>
    </g>
    <g text-rendering="geometricPrecision" stroke-miterlimit="1.45" shape-rendering="geometricPrecision" transform="matrix(1,0,0,1,-102,-25)" stroke-linecap="butt">
      <text x="278.2715" xml:space="preserve" y="443.6543" clip-path="url(#clipPath2)" stroke="none">cream</text>
    </g>
    <g text-rendering="geometricPrecision" stroke-miterlimit="1.45" shape-rendering="geometricPrecision" transform="matrix(1,0,0,1,-102,-25)" stroke-linecap="butt">
      <text x="173.4326" xml:space="preserve" y="383.6543" clip-path="url(#clipPath2)" stroke="none">2</text>
    </g>
    <g fill="url(#linearGradient1)" text-rendering="geometricPrecision" shape-rendering="geometricPrecision" transform="matrix(1,0,0,1,-102,-25)" stroke="url(#linearGradient1)">
      <path d="M893.72 40.5 L933.72 40.5 L933.72 624 L893.72 624 Z" clip-path="url(#clipPath2)" stroke="none"/>
    </g>
    <g text-rendering="geometricPrecision" font-size="14" stroke-miterlimit="1.45" shape-rendering="geometricPrecision" transform="matrix(0,1,-1,0,821.8684,253.2627)" stroke-linecap="butt">
      <text x="2" xml:space="preserve" y="14.9951" clip-path="url(#clipPath3)" stroke="none">scanned range</text>
    </g>
    <g stroke-linecap="butt" transform="matrix(1,0,0,1,-102,-25)" fill="rgb(175,215,255)" text-rendering="geometricPrecision" shape-rendering="geometricPrecision" stroke="rgb(175,215,255)" stroke-miterlimit="1.45">
      <path fill="none" d="M297.25 364.4721 L297.25 135.75 L442.0266 135.75" clip-path="url(#clipPath2)"/>
    </g>
    <g stroke-linecap="butt" transform="matrix(1,0,0,1,-102,-25)" fill="rgb(175,215,255)" text-rendering="geometricPrecision" shape-rendering="geometricPrecision" stroke="rgb(175,215,255)" stroke-miterlimit="1.45">
      <path d="M450.0266 135.75 L438.0266 130.75 L441.0266 135.75 L438.0266 140.75 Z" clip-path="url(#clipPath2)" stroke="none"/>
      <path fill="none" d="M312.25 409.5 L442.0402 409.5" clip-path="url(#clipPath2)"/>
      <path d="M450.0402 409.5 L438.0402 404.5 L441.0402 409.5 L438.0402 414.5 Z" clip-path="url(#clipPath2)" stroke="none"/>
      <path fill="none" d="M297.25 454.5 L297.25 624.75 L441.366 624.75" clip-path="url(#clipPath2)"/>
      <path d="M449.366 624.75 L437.366 619.75 L440.366 624.75 L437.366 629.75 Z" clip-path="url(#clipPath2)" stroke="none"/>
    </g>
  </g>
</svg>
