<?xml version="1.0" encoding="UTF-8"?><svg xmlns="http://www.w3.org/2000/svg" xmlns:xlink="http://www.w3.org/1999/xlink" fill-opacity="1" color-rendering="auto" color-interpolation="auto" stroke="black" text-rendering="auto" stroke-linecap="square" width="860" stroke-miterlimit="10" stroke-opacity="1" shape-rendering="auto" fill="black" stroke-dasharray="none" font-weight="normal" stroke-width="1" height="710" font-family="'Dialog'" font-style="normal" stroke-linejoin="miter" font-size="12" stroke-dashoffset="0" image-rendering="auto">
  <!--Generated by ySVG 2.5-->
  <defs id="genericDefs"/>
  <g>
    <defs id="defs1">
      <linearGradient x1="930.9131" gradientUnits="userSpaceOnUse" x2="970.9131" y1="71" y2="440" id="linearGradient1" spreadMethod="reflect">
        <stop stop-opacity="1" stop-color="rgb(175,215,255)" offset="0%"/>
        <stop stop-opacity="1" stop-color="rgb(92,174,255)" offset="100%"/>
      </linearGradient>
      <clipPath clipPathUnits="userSpaceOnUse" id="clipPath1">
        <path d="M0 0 L860 0 L860 710 L0 710 L0 0 Z"/>
      </clipPath>
      <clipPath clipPathUnits="userSpaceOnUse" id="clipPath2">
        <path d="M126 56 L986 56 L986 766 L126 766 L126 56 Z"/>
      </clipPath>
      <clipPath clipPathUnits="userSpaceOnUse" id="clipPath3">
        <path d="M-145.5127 835.0615 L-145.5127 -24.9385 L564.4873 -24.9385 L564.4873 835.0615 L-145.5127 835.0615 Z"/>
      </clipPath>
    </defs>
    <g fill="white" text-rendering="geometricPrecision" shape-rendering="geometricPrecision" transform="translate(-126,-56)" stroke="white">
      <rect x="126" width="860" height="710" y="56" clip-path="url(#clipPath2)" stroke="none"/>
    </g>
    <g fill="rgb(113,184,255)" text-rendering="geometricPrecision" shape-rendering="geometricPrecision" transform="matrix(1,0,0,1,-126,-56)" stroke="rgb(113,184,255)">
      <path d="M476.1816 560 L476.1816 590 L900.9131 590 L900.9131 560 Z" clip-path="url(#clipPath2)" stroke="none"/>
      <rect x="476.1816" width="424.7314" height="160.5" y="590" clip-path="url(#clipPath2)" stroke="none"/>
      <rect x="476.1816" y="590" clip-path="url(#clipPath2)" fill="rgb(175,215,255)" width="119.916" height="24" stroke="none"/>
      <rect x="476.1816" y="614" clip-path="url(#clipPath2)" fill="rgb(175,215,255)" width="119.916" height="136.5" stroke="none"/>
      <rect x="596.0977" y="590" clip-path="url(#clipPath2)" fill="rgb(92,174,255)" width="120" height="24" stroke="none"/>
      <rect x="596.0977" y="614" clip-path="url(#clipPath2)" fill="rgb(92,174,255)" width="120" height="136.5" stroke="none"/>
      <rect x="716.0977" y="590" clip-path="url(#clipPath2)" fill="rgb(175,215,255)" width="184.8154" height="24" stroke="none"/>
      <rect x="716.0977" y="614" clip-path="url(#clipPath2)" fill="rgb(175,215,255)" width="184.8154" height="136.5" stroke="none"/>
      <line clip-path="url(#clipPath2)" fill="rgb(51,153,255)" x1="476.1816" x2="476.1816" y1="614" y2="750.5" stroke="none"/>
    </g>
    <g text-rendering="geometricPrecision" font-size="15" stroke-miterlimit="1.45" shape-rendering="geometricPrecision" transform="matrix(1,0,0,1,-126,-56)" stroke-linecap="butt">
      <text x="643.4045" xml:space="preserve" y="579.9233" clip-path="url(#clipPath2)" stroke="none">Leaf Node 3</text>
      <text x="506.7637" font-size="12" y="606.1387" clip-path="url(#clipPath2)" font-family="sans-serif" stroke="none" xml:space="preserve">PRODUCT</text>
      <text x="611.7656" font-size="12" y="606.1387" clip-path="url(#clipPath2)" font-family="sans-serif" stroke="none" xml:space="preserve">TEMPERATURE</text>
      <text x="787.2915" font-size="12" y="606.1387" clip-path="url(#clipPath2)" font-family="sans-serif" stroke="none" xml:space="preserve">ROWID</text>
    </g>
    <g text-rendering="geometricPrecision" stroke-miterlimit="1.45" shape-rendering="geometricPrecision" transform="matrix(1,0,0,1,-126,-56)" stroke-linecap="butt">
      <text x="526.9717" xml:space="preserve" y="643.6543" clip-path="url(#clipPath2)" stroke="none">milk</text>
    </g>
    <g text-rendering="geometricPrecision" stroke-miterlimit="1.45" shape-rendering="geometricPrecision" transform="matrix(1,0,0,1,-126,-56)" stroke-linecap="butt">
      <text x="519.7529" xml:space="preserve" y="673.6543" clip-path="url(#clipPath2)" stroke="none">unions</text>
    </g>
    <g text-rendering="geometricPrecision" stroke-miterlimit="1.45" shape-rendering="geometricPrecision" transform="matrix(1,0,0,1,-126,-56)" stroke-linecap="butt">
      <text x="522.5303" xml:space="preserve" y="703.6543" clip-path="url(#clipPath2)" stroke="none">water</text>
    </g>
    <g text-rendering="geometricPrecision" stroke-miterlimit="1.45" shape-rendering="geometricPrecision" transform="matrix(1,0,0,1,-126,-56)" stroke-linecap="butt">
      <text x="655.8076" xml:space="preserve" y="643.6543" clip-path="url(#clipPath2)" stroke="none">5</text>
    </g>
    <g text-rendering="geometricPrecision" stroke-miterlimit="1.45" shape-rendering="geometricPrecision" transform="matrix(1,0,0,1,-126,-56)" stroke-linecap="butt">
      <text x="655.8076" xml:space="preserve" y="673.6543" clip-path="url(#clipPath2)" stroke="none">2</text>
    </g>
    <g text-rendering="geometricPrecision" stroke-miterlimit="1.45" shape-rendering="geometricPrecision" transform="matrix(1,0,0,1,-126,-56)" stroke-linecap="butt">
      <text x="655.8076" xml:space="preserve" y="703.6543" clip-path="url(#clipPath2)" stroke="none">1</text>
    </g>
    <g text-rendering="geometricPrecision" stroke-miterlimit="1.45" shape-rendering="geometricPrecision" transform="matrix(1,0,0,1,-126,-56)" stroke-linecap="butt">
      <text x="522.5303" xml:space="preserve" y="733.6543" clip-path="url(#clipPath2)" stroke="none">water</text>
    </g>
    <g text-rendering="geometricPrecision" stroke-miterlimit="1.45" shape-rendering="geometricPrecision" transform="matrix(1,0,0,1,-126,-56)" stroke-linecap="butt">
      <text x="655.8076" xml:space="preserve" y="733.6543" clip-path="url(#clipPath2)" stroke="none">2</text>
    </g>
    <g text-rendering="geometricPrecision" stroke-miterlimit="1.45" shape-rendering="geometricPrecision" transform="matrix(1,0,0,1,-126,-56)" stroke-linecap="butt">
      <text x="733.8516" xml:space="preserve" y="643.6543" clip-path="url(#clipPath2)" stroke="none">AAAAAqACEAAAAbzCcP</text>
    </g>
    <g text-rendering="geometricPrecision" stroke-miterlimit="1.45" shape-rendering="geometricPrecision" transform="matrix(1,0,0,1,-126,-56)" stroke-linecap="butt">
      <text x="731.9561" xml:space="preserve" y="673.6543" clip-path="url(#clipPath2)" stroke="none">AAAAAqACEAAAAEPHKA</text>
    </g>
    <g text-rendering="geometricPrecision" stroke-miterlimit="1.45" shape-rendering="geometricPrecision" transform="matrix(1,0,0,1,-126,-56)" stroke-linecap="butt">
      <text x="728.9443" xml:space="preserve" y="703.6543" clip-path="url(#clipPath2)" stroke="none">AAAAAqACEAAAAGtAWW</text>
    </g>
    <g text-rendering="geometricPrecision" stroke-miterlimit="1.45" shape-rendering="geometricPrecision" transform="matrix(1,0,0,1,-126,-56)" stroke-linecap="butt">
      <text x="733.1982" xml:space="preserve" y="733.6543" clip-path="url(#clipPath2)" stroke="none">AAAAAqACEAAAAGtAKa</text>
    </g>
    <g fill="rgb(113,184,255)" text-rendering="geometricPrecision" shape-rendering="geometricPrecision" transform="matrix(1,0,0,1,-126,-56)" stroke="rgb(113,184,255)">
      <path d="M475.3994 315.5 L475.3994 345.5 L900.9131 345.5 L900.9131 315.5 Z" clip-path="url(#clipPath2)" stroke="none"/>
      <rect x="475.3994" width="425.5137" height="160.5" y="345.5" clip-path="url(#clipPath2)" stroke="none"/>
      <rect x="475.3994" y="345.5" clip-path="url(#clipPath2)" fill="rgb(175,215,255)" width="120.541" height="24" stroke="none"/>
      <rect x="475.3994" y="369.5" clip-path="url(#clipPath2)" fill="rgb(175,215,255)" width="120.541" height="136.5" stroke="none"/>
      <rect x="595.9404" y="345.5" clip-path="url(#clipPath2)" fill="rgb(92,174,255)" width="120" height="24" stroke="none"/>
      <rect x="595.9404" y="369.5" clip-path="url(#clipPath2)" fill="rgb(92,174,255)" width="120" height="136.5" stroke="none"/>
      <rect x="715.9404" y="345.5" clip-path="url(#clipPath2)" fill="rgb(175,215,255)" width="184.9727" height="24" stroke="none"/>
      <rect x="715.9404" y="369.5" clip-path="url(#clipPath2)" fill="rgb(175,215,255)" width="184.9727" height="136.5" stroke="none"/>
      <line clip-path="url(#clipPath2)" fill="rgb(51,153,255)" x1="475.3994" x2="475.3994" y1="369.5" y2="506" stroke="none"/>
    </g>
    <g text-rendering="geometricPrecision" font-size="15" stroke-miterlimit="1.45" shape-rendering="geometricPrecision" transform="matrix(1,0,0,1,-126,-56)" stroke-linecap="butt">
      <text x="643.0134" xml:space="preserve" y="335.4233" clip-path="url(#clipPath2)" stroke="none">Leaf Node 2</text>
      <text x="506.2939" font-size="12" y="361.6387" clip-path="url(#clipPath2)" font-family="sans-serif" stroke="none" xml:space="preserve">PRODUCT</text>
      <text x="611.6084" font-size="12" y="361.6387" clip-path="url(#clipPath2)" font-family="sans-serif" stroke="none" xml:space="preserve">TEMPERATURE</text>
      <text x="787.2129" font-size="12" y="361.6387" clip-path="url(#clipPath2)" font-family="sans-serif" stroke="none" xml:space="preserve">ROWID</text>
    </g>
    <g text-rendering="geometricPrecision" stroke-miterlimit="1.45" shape-rendering="geometricPrecision" transform="matrix(1,0,0,1,-126,-56)" stroke-linecap="butt">
      <text x="526.5918" xml:space="preserve" y="399.1543" clip-path="url(#clipPath2)" stroke="none">beer</text>
    </g>
    <g text-rendering="geometricPrecision" stroke-miterlimit="1.45" shape-rendering="geometricPrecision" transform="matrix(1,0,0,1,-126,-56)" stroke-linecap="butt">
      <text x="518.9482" xml:space="preserve" y="429.1543" clip-path="url(#clipPath2)" stroke="none">cheese</text>
    </g>
    <g text-rendering="geometricPrecision" stroke-miterlimit="1.45" shape-rendering="geometricPrecision" transform="matrix(1,0,0,1,-126,-56)" stroke-linecap="butt">
      <text x="526.1143" xml:space="preserve" y="459.1543" clip-path="url(#clipPath2)" stroke="none">coke</text>
    </g>
    <g text-rendering="geometricPrecision" stroke-miterlimit="1.45" shape-rendering="geometricPrecision" transform="matrix(1,0,0,1,-126,-56)" stroke-linecap="butt">
      <text x="656.4326" xml:space="preserve" y="399.1543" clip-path="url(#clipPath2)" stroke="none">6</text>
    </g>
    <g text-rendering="geometricPrecision" stroke-miterlimit="1.45" shape-rendering="geometricPrecision" transform="matrix(1,0,0,1,-126,-56)" stroke-linecap="butt">
      <text x="656.4326" xml:space="preserve" y="429.1543" clip-path="url(#clipPath2)" stroke="none">4</text>
    </g>
    <g text-rendering="geometricPrecision" stroke-miterlimit="1.45" shape-rendering="geometricPrecision" transform="matrix(1,0,0,1,-126,-56)" stroke-linecap="butt">
      <text x="656.4326" xml:space="preserve" y="459.1543" clip-path="url(#clipPath2)" stroke="none">2</text>
    </g>
    <g text-rendering="geometricPrecision" stroke-miterlimit="1.45" shape-rendering="geometricPrecision" transform="matrix(1,0,0,1,-126,-56)" stroke-linecap="butt">
      <text x="521.2715" xml:space="preserve" y="489.1543" clip-path="url(#clipPath2)" stroke="none">cream</text>
    </g>
    <g text-rendering="geometricPrecision" stroke-miterlimit="1.45" shape-rendering="geometricPrecision" transform="matrix(1,0,0,1,-126,-56)" stroke-linecap="butt">
      <text x="656.4326" xml:space="preserve" y="489.1543" clip-path="url(#clipPath2)" stroke="none">6</text>
    </g>
    <g text-rendering="geometricPrecision" stroke-miterlimit="1.45" shape-rendering="geometricPrecision" transform="matrix(1,0,0,1,-126,-56)" stroke-linecap="butt">
      <text x="735.5713" xml:space="preserve" y="399.1543" clip-path="url(#clipPath2)" stroke="none">AAAAAqACEAAAAbzIqS</text>
    </g>
    <g text-rendering="geometricPrecision" stroke-miterlimit="1.45" shape-rendering="geometricPrecision" transform="matrix(1,0,0,1,-126,-56)" stroke-linecap="butt">
      <text x="734.1855" xml:space="preserve" y="429.1543" clip-path="url(#clipPath2)" stroke="none">AAAAAqACEAAAAEPAfA</text>
    </g>
    <g text-rendering="geometricPrecision" stroke-miterlimit="1.45" shape-rendering="geometricPrecision" transform="matrix(1,0,0,1,-126,-56)" stroke-linecap="butt">
      <text x="732.2812" xml:space="preserve" y="459.1543" clip-path="url(#clipPath2)" stroke="none">AAAAAqACEAAAAE6AA0</text>
    </g>
    <g text-rendering="geometricPrecision" stroke-miterlimit="1.45" shape-rendering="geometricPrecision" transform="matrix(1,0,0,1,-126,-56)" stroke-linecap="butt">
      <text x="731.5869" xml:space="preserve" y="489.1543" clip-path="url(#clipPath2)" stroke="none">AAAAAqACEABy1H4AAD</text>
    </g>
    <g fill="rgb(113,184,255)" text-rendering="geometricPrecision" shape-rendering="geometricPrecision" transform="matrix(1,0,0,1,-126,-56)" stroke="rgb(113,184,255)">
      <path d="M476.5977 71 L476.5977 101 L900.9131 101 L900.9131 71 Z" clip-path="url(#clipPath2)" stroke="none"/>
      <rect x="476.5977" width="424.3154" height="160.5" y="101" clip-path="url(#clipPath2)" stroke="none"/>
      <rect x="476.5977" y="101" clip-path="url(#clipPath2)" fill="rgb(175,215,255)" width="120.541" height="24" stroke="none"/>
      <rect x="476.5977" y="125" clip-path="url(#clipPath2)" fill="rgb(175,215,255)" width="120.541" height="136.5" stroke="none"/>
      <rect x="597.1387" y="101" clip-path="url(#clipPath2)" fill="rgb(92,174,255)" width="120" height="24" stroke="none"/>
      <rect x="597.1387" y="125" clip-path="url(#clipPath2)" fill="rgb(92,174,255)" width="120" height="136.5" stroke="none"/>
      <rect x="717.1387" y="101" clip-path="url(#clipPath2)" fill="rgb(175,215,255)" width="183.7744" height="24" stroke="none"/>
      <rect x="717.1387" y="125" clip-path="url(#clipPath2)" fill="rgb(175,215,255)" width="183.7744" height="136.5" stroke="none"/>
      <line clip-path="url(#clipPath2)" fill="rgb(51,153,255)" x1="476.5977" x2="476.5977" y1="125" y2="261.5" stroke="none"/>
    </g>
    <g text-rendering="geometricPrecision" font-size="15" stroke-miterlimit="1.45" shape-rendering="geometricPrecision" transform="matrix(1,0,0,1,-126,-56)" stroke-linecap="butt">
      <text x="643.6125" xml:space="preserve" y="90.9233" clip-path="url(#clipPath2)" stroke="none">Leaf Node 1</text>
      <text x="507.4922" font-size="12" y="117.1387" clip-path="url(#clipPath2)" font-family="sans-serif" stroke="none" xml:space="preserve">PRODUCT</text>
      <text x="612.8066" font-size="12" y="117.1387" clip-path="url(#clipPath2)" font-family="sans-serif" stroke="none" xml:space="preserve">TEMPERATURE</text>
      <text x="787.812" font-size="12" y="117.1387" clip-path="url(#clipPath2)" font-family="sans-serif" stroke="none" xml:space="preserve">ROWID</text>
    </g>
    <g text-rendering="geometricPrecision" stroke-miterlimit="1.45" shape-rendering="geometricPrecision" transform="matrix(1,0,0,1,-126,-56)" stroke-linecap="butt">
      <text x="523.5977" xml:space="preserve" y="154.6543" clip-path="url(#clipPath2)" stroke="none">apple</text>
    </g>
    <g text-rendering="geometricPrecision" stroke-miterlimit="1.45" shape-rendering="geometricPrecision" transform="matrix(1,0,0,1,-126,-56)" stroke-linecap="butt">
      <text x="526.5918" xml:space="preserve" y="184.6543" clip-path="url(#clipPath2)" stroke="none">beer</text>
    </g>
    <g text-rendering="geometricPrecision" stroke-miterlimit="1.45" shape-rendering="geometricPrecision" transform="matrix(1,0,0,1,-126,-56)" stroke-linecap="butt">
      <text x="526.5918" xml:space="preserve" y="214.6543" clip-path="url(#clipPath2)" stroke="none">beer</text>
    </g>
    <g text-rendering="geometricPrecision" stroke-miterlimit="1.45" shape-rendering="geometricPrecision" transform="matrix(1,0,0,1,-126,-56)" stroke-linecap="butt">
      <text x="656.4326" xml:space="preserve" y="154.6543" clip-path="url(#clipPath2)" stroke="none">3</text>
    </g>
    <g text-rendering="geometricPrecision" stroke-miterlimit="1.45" shape-rendering="geometricPrecision" transform="matrix(1,0,0,1,-126,-56)" stroke-linecap="butt">
      <text x="656.4326" xml:space="preserve" y="184.6543" clip-path="url(#clipPath2)" stroke="none">2</text>
    </g>
    <g text-rendering="geometricPrecision" stroke-miterlimit="1.45" shape-rendering="geometricPrecision" transform="matrix(1,0,0,1,-126,-56)" stroke-linecap="butt">
      <text x="656.4326" xml:space="preserve" y="214.6543" clip-path="url(#clipPath2)" stroke="none">4</text>
    </g>
    <g text-rendering="geometricPrecision" stroke-miterlimit="1.45" shape-rendering="geometricPrecision" transform="matrix(1,0,0,1,-126,-56)" stroke-linecap="butt">
      <text x="526.5918" xml:space="preserve" y="244.6543" clip-path="url(#clipPath2)" stroke="none">beer</text>
    </g>
    <g text-rendering="geometricPrecision" stroke-miterlimit="1.45" shape-rendering="geometricPrecision" transform="matrix(1,0,0,1,-126,-56)" stroke-linecap="butt">
      <text x="656.4326" xml:space="preserve" y="244.6543" clip-path="url(#clipPath2)" stroke="none">4</text>
    </g>
    <g text-rendering="geometricPrecision" stroke-miterlimit="1.45" shape-rendering="geometricPrecision" transform="matrix(1,0,0,1,-126,-56)" stroke-linecap="butt">
      <text x="732.2695" xml:space="preserve" y="154.6543" clip-path="url(#clipPath2)" stroke="none">AAAAAqACEAAAAE6AB7</text>
    </g>
    <g text-rendering="geometricPrecision" stroke-miterlimit="1.45" shape-rendering="geometricPrecision" transform="matrix(1,0,0,1,-126,-56)" stroke-linecap="butt">
      <text x="731.9092" xml:space="preserve" y="184.6543" clip-path="url(#clipPath2)" stroke="none">AAAAAqACEAAAAE6AAC</text>
    </g>
    <g text-rendering="geometricPrecision" stroke-miterlimit="1.45" shape-rendering="geometricPrecision" transform="matrix(1,0,0,1,-126,-56)" stroke-linecap="butt">
      <text x="731.0654" xml:space="preserve" y="214.6543" clip-path="url(#clipPath2)" stroke="none">AAAAAqACEAAAAE6NVG</text>
    </g>
    <g text-rendering="geometricPrecision" stroke-miterlimit="1.45" shape-rendering="geometricPrecision" transform="matrix(1,0,0,1,-126,-56)" stroke-linecap="butt">
      <text x="733.8398" xml:space="preserve" y="244.6543" clip-path="url(#clipPath2)" stroke="none">AAAAAqACEAAAAE6Pyc</text>
    </g>
    <g fill="rgb(113,184,255)" text-rendering="geometricPrecision" shape-rendering="geometricPrecision" transform="matrix(1,0,0,1,-126,-56)" stroke="rgb(113,184,255)">
      <path d="M141.5215 333 L141.5215 363 L392.1006 363 L392.1006 333 Z" clip-path="url(#clipPath2)" stroke="none"/>
      <rect x="141.5215" width="250.5791" height="129" y="363" clip-path="url(#clipPath2)" stroke="none"/>
      <rect x="141.5215" y="363" clip-path="url(#clipPath2)" fill="rgb(175,215,255)" width="122.2812" height="24" stroke="none"/>
      <rect x="141.5215" y="387" clip-path="url(#clipPath2)" fill="rgb(175,215,255)" width="122.2812" height="105" stroke="none"/>
      <rect x="263.8027" y="363" clip-path="url(#clipPath2)" fill="rgb(51,153,255)" width="128.2979" height="24" stroke="none"/>
      <rect x="263.8027" y="387" clip-path="url(#clipPath2)" fill="rgb(51,153,255)" width="128.2979" height="105" stroke="none"/>
      <line clip-path="url(#clipPath2)" fill="rgb(113,146,178)" x1="141.5215" x2="141.5215" y1="387" y2="492" stroke="none"/>
    </g>
    <g text-rendering="geometricPrecision" font-size="15" stroke-miterlimit="1.45" shape-rendering="geometricPrecision" transform="matrix(1,0,0,1,-126,-56)" stroke-linecap="butt">
      <text x="218.398" xml:space="preserve" y="352.9233" clip-path="url(#clipPath2)" stroke="none">Branch Node</text>
      <text x="173.2861" font-size="12" y="379.1387" clip-path="url(#clipPath2)" font-family="sans-serif" stroke="none" xml:space="preserve">PRODUCT</text>
      <text x="283.6196" font-size="12" y="379.1387" clip-path="url(#clipPath2)" font-family="sans-serif" stroke="none" xml:space="preserve">TEMPERATURE</text>
    </g>
    <g text-rendering="geometricPrecision" stroke-miterlimit="1.45" shape-rendering="geometricPrecision" transform="matrix(1,0,0,1,-126,-56)" stroke-linecap="butt">
      <text x="188.5215" xml:space="preserve" y="444.1543" clip-path="url(#clipPath2)" stroke="none">cream</text>
    </g>
    <g text-rendering="geometricPrecision" stroke-miterlimit="1.45" shape-rendering="geometricPrecision" transform="matrix(1,0,0,1,-126,-56)" stroke-linecap="butt">
      <text x="190.4053" xml:space="preserve" y="474.1543" clip-path="url(#clipPath2)" stroke="none">water</text>
    </g>
    <g text-rendering="geometricPrecision" stroke-miterlimit="1.45" shape-rendering="geometricPrecision" transform="matrix(1,0,0,1,-126,-56)" stroke-linecap="butt">
      <text x="323.6826" xml:space="preserve" y="414.1543" clip-path="url(#clipPath2)" stroke="none">4</text>
    </g>
    <g text-rendering="geometricPrecision" stroke-miterlimit="1.45" shape-rendering="geometricPrecision" transform="matrix(1,0,0,1,-126,-56)" stroke-linecap="butt">
      <text x="323.6826" xml:space="preserve" y="444.1543" clip-path="url(#clipPath2)" stroke="none">6</text>
    </g>
    <g text-rendering="geometricPrecision" stroke-miterlimit="1.45" shape-rendering="geometricPrecision" transform="matrix(1,0,0,1,-126,-56)" stroke-linecap="butt">
      <text x="323.6826" xml:space="preserve" y="474.1543" clip-path="url(#clipPath2)" stroke="none">5</text>
    </g>
    <g text-rendering="geometricPrecision" stroke-miterlimit="1.45" shape-rendering="geometricPrecision" transform="matrix(1,0,0,1,-126,-56)" stroke-linecap="butt">
      <text x="193.8418" xml:space="preserve" y="414.1543" clip-path="url(#clipPath2)" stroke="none">beer</text>
    </g>
    <g fill="url(#linearGradient1)" text-rendering="geometricPrecision" shape-rendering="geometricPrecision" transform="matrix(1,0,0,1,-126,-56)" stroke="url(#linearGradient1)">
      <path d="M930.9131 71 L970.9131 71 L970.9131 440 L930.9131 440 Z" clip-path="url(#clipPath2)" stroke="none"/>
    </g>
    <g text-rendering="geometricPrecision" font-size="14" stroke-miterlimit="1.45" shape-rendering="geometricPrecision" transform="matrix(0,1,-1,0,835.0615,145.5127)" stroke-linecap="butt">
      <text x="2" xml:space="preserve" y="14.9951" clip-path="url(#clipPath3)" stroke="none">scanned range</text>
    </g>
    <g stroke-linecap="butt" transform="matrix(1,0,0,1,-126,-56)" fill="rgb(175,215,255)" text-rendering="geometricPrecision" shape-rendering="geometricPrecision" stroke="rgb(175,215,255)" stroke-miterlimit="1.45">
      <path fill="none" d="M327.5 394.9721 L327.5 166.25 L468.606 166.25" clip-path="url(#clipPath2)"/>
    </g>
    <g stroke-linecap="butt" transform="matrix(1,0,0,1,-126,-56)" fill="rgb(175,215,255)" text-rendering="geometricPrecision" shape-rendering="geometricPrecision" stroke="rgb(175,215,255)" stroke-miterlimit="1.45">
      <path d="M476.606 166.25 L464.606 161.25 L467.606 166.25 L464.606 171.25 Z" clip-path="url(#clipPath2)" stroke="none"/>
      <path fill="none" d="M342.5 440 L467.3706 440" clip-path="url(#clipPath2)"/>
      <path d="M475.3706 440 L463.3706 435 L466.3706 440 L463.3706 445 Z" clip-path="url(#clipPath2)" stroke="none"/>
      <path fill="none" d="M327.5 485 L327.5 655.25 L468.203 655.25" clip-path="url(#clipPath2)"/>
      <path d="M476.203 655.25 L464.203 650.25 L467.203 655.25 L464.203 660.25 Z" clip-path="url(#clipPath2)" stroke="none"/>
    </g>
  </g>
</svg>
